<svg id="visual" viewBox="0 0 900 600" width="900" height="600" xmlns="http://www.w3.org/2000/svg" xmlns:xlink="http://www.w3.org/1999/xlink" version="1.1"><rect x="0" y="0" width="900" height="600" fill="#5A5D5F"></rect><defs><linearGradient id="grad1_0" x1="33.3%" y1="0%" x2="100%" y2="100%"><stop offset="20%" stop-color="#5a5d5f" stop-opacity="1"></stop><stop offset="80%" stop-color="#5a5d5f" stop-opacity="1"></stop></linearGradient></defs><defs><linearGradient id="grad2_0" x1="0%" y1="0%" x2="66.7%" y2="100%"><stop offset="20%" stop-color="#5a5d5f" stop-opacity="1"></stop><stop offset="80%" stop-color="#5a5d5f" stop-opacity="1"></stop></linearGradient></defs><g transform="translate(900, 0)"><path d="M0 432.7C-84.6 426.5 -169.2 420.3 -216.3 374.7C-263.5 329.1 -273.3 244 -303.1 175C-332.9 106 -382.8 53 -432.7 0L0 0Z" fill="#1F1F1F"></path></g><g transform="translate(0, 600)"><path d="M0 -432.7C91.7 -430.6 183.5 -428.6 216.3 -374.7C249.2 -320.8 223.2 -215.1 249.4 -144C275.7 -72.9 354.2 -36.5 432.7 0L0 0Z" fill="#1F1F1F"></path></g></svg>