<svg id="visual" viewBox="0 0 900 600" width="900" height="600" xmlns="http://www.w3.org/2000/svg" xmlns:xlink="http://www.w3.org/1999/xlink" version="1.1"><path d="M0 151L64 109L129 157L193 73L257 55L321 199L386 217L450 313L514 265L579 205L643 265L707 235L771 55L836 313L900 163L900 0L836 0L771 0L707 0L643 0L579 0L514 0L450 0L386 0L321 0L257 0L193 0L129 0L64 0L0 0Z" fill="#0063cc"></path><path d="M0 181L64 151L129 169L193 109L257 121L321 211L386 235L450 349L514 277L579 259L643 331L707 289L771 91L836 367L900 187L900 161L836 311L771 53L707 233L643 263L579 203L514 263L450 311L386 215L321 197L257 53L193 71L129 155L64 107L0 149Z" fill="#1c5cc5"></path><path d="M0 343L64 307L129 385L193 379L257 439L321 295L386 343L450 379L514 385L579 349L643 385L707 361L771 319L836 433L900 325L900 185L836 365L771 89L707 287L643 329L579 257L514 275L450 347L386 233L321 209L257 119L193 107L129 167L64 149L0 179Z" fill="#2955be"></path><path d="M0 379L64 325L129 391L193 403L257 475L321 325L386 361L450 415L514 463L579 355L643 409L707 427L771 343L836 457L900 379L900 323L836 431L771 317L707 359L643 383L579 347L514 383L450 377L386 341L321 293L257 437L193 377L129 383L64 305L0 341Z" fill="#324eb7"></path><path d="M0 409L64 337L129 403L193 469L257 517L321 373L386 451L450 475L514 487L579 391L643 463L707 481L771 427L836 493L900 475L900 377L836 455L771 341L707 425L643 407L579 353L514 461L450 413L386 359L321 323L257 473L193 401L129 389L64 323L0 377Z" fill="#3947af"></path><path d="M0 469L64 451L129 469L193 523L257 547L321 529L386 505L450 577L514 523L579 445L643 475L707 529L771 445L836 559L900 499L900 473L836 491L771 425L707 479L643 461L579 389L514 485L450 473L386 449L321 371L257 515L193 467L129 401L64 335L0 407Z" fill="#3f40a7"></path><path d="M0 481L64 481L129 535L193 589L257 571L321 547L386 589L450 583L514 577L579 475L643 541L707 565L771 523L836 571L900 547L900 497L836 557L771 443L707 527L643 473L579 443L514 521L450 575L386 503L321 527L257 545L193 521L129 467L64 449L0 467Z" fill="#43399f"></path><path d="M0 601L64 601L129 601L193 601L257 601L321 601L386 601L450 601L514 601L579 601L643 601L707 601L771 601L836 601L900 601L900 545L836 569L771 521L707 563L643 539L579 473L514 575L450 581L386 587L321 545L257 569L193 587L129 533L64 479L0 479Z" fill="#473197"></path></svg>